<?xml version="1.0" standalone="no"?>
<!DOCTYPE svg PUBLIC "-//W3C//DTD SVG 20010904//EN"
 "http://www.w3.org/TR/2001/REC-SVG-20010904/DTD/svg10.dtd">
<svg version="1.0" xmlns="http://www.w3.org/2000/svg"
 width="512.000000pt" height="512.000000pt" viewBox="0 0 512.000000 512.000000"
 preserveAspectRatio="xMidYMid meet">
<metadata>
Created by potrace 1.14, written by Peter Selinger 2001-2017
</metadata>
<g transform="translate(0.000000,512.000000) scale(0.100000,-0.100000)"
fill="#000000" stroke="none">
<path d="M2335 4709 c-245 -27 -518 -106 -740 -213 -661 -322 -1114 -957
-1205 -1686 -15 -127 -12 -412 6 -542 39 -283 145 -583 288 -817 346 -568 935
-950 1594 -1035 142 -18 398 -21 540 -5 361 39 737 186 1037 404 476 348 775
839 872 1430 27 166 24 487 -6 658 -54 310 -166 594 -329 838 -345 514 -859
845 -1477 950 -141 24 -441 33 -580 18z m575 -1369 c58 -11 90 -33 90 -61 0
-10 -49 -114 -109 -231 -89 -174 -440 -909 -559 -1171 -39 -85 -47 -90 -136
-85 -81 4 -116 23 -116 62 0 12 41 102 92 201 51 99 208 425 349 725 260 552
269 569 320 570 9 0 40 -5 69 -10z m-933 -391 c17 -31 17 -150 1 -172 -13 -17
-118 -68 -365 -177 -79 -35 -143 -66 -143 -69 0 -4 109 -56 242 -116 133 -60
250 -117 260 -127 14 -14 18 -34 18 -82 0 -36 -4 -76 -10 -90 -18 -47 0 -54
-590 211 -129 58 -241 112 -248 121 -16 21 -16 143 1 164 10 14 620 295 757
349 53 21 61 20 77 -12z m1270 2 c79 -31 696 -311 720 -327 26 -17 39 -85 27
-141 -8 -34 -16 -41 -74 -70 -167 -83 -720 -323 -742 -323 -33 0 -38 15 -38
108 0 51 5 80 14 91 8 9 125 66 260 126 135 61 245 112 246 115 0 3 -107 52
-237 110 -130 58 -247 113 -260 123 -21 17 -23 27 -23 97 0 43 3 85 6 94 8 21
43 20 101 -3z"/>
</g>
</svg>
